<svg xmlns="http://www.w3.org/2000/svg" width="258.714" height="70.808" viewBox="0 0 258.714 70.808"><defs><style>.a{fill:#fdfdff;}.a,.b{fill-rule:evenodd;}.b,.c{fill:#ff896a;}</style></defs><g transform="translate(2.551 -10.156)"><g transform="translate(-2.551 10.156)"><path class="a" d="M0,29.111A29.6,29.6,0,0,0,3.618,43.65c1.513,3.092,5.592,8.158,8.289,9.934.2-2.632,4.276-6.645,6.447-8.092.987-.658,2.105-1.316,3.092-1.842a10.811,10.811,0,0,0,2.763,1.908,7.842,7.842,0,0,0,3.816,1.053L25.46,55.3c-3.553,10.592-3.684,8.355.395,12.368,4.145,4.145,3.553,4.145,7.7,0,4.013-4.013,3.947-1.842.461-12.171-.461-1.447-.855-2.961-1.316-4.276a22.931,22.931,0,0,1-1.316-4.605A10.345,10.345,0,0,0,37.96,43.65,19.93,19.93,0,0,1,45.855,50.3,6.781,6.781,0,0,1,47.5,53.584c4.539-3.026,9.145-10.263,10.789-15.987,2.96-10.46-.395-21.776-7.039-28.355A26.639,26.639,0,0,0,43.158,3.19C22.96-6.941,0,8.19,0,29.111Z" transform="translate(0 0.036)"/><g transform="translate(17.171 14.608)"><path class="b" d="M651,388.842h1.974v-.066a8.09,8.09,0,0,0-.131-1.776Z" transform="translate(-625.342 -376.145)"/><path class="b" d="M495.184,247,489,253.184v1.974l7.368-7.368A6.18,6.18,0,0,0,495.184,247Z" transform="translate(-474 -245.355)"/><path class="b" d="M492.421,230,489,233.421v1.974l4.868-4.934A12.291,12.291,0,0,0,492.421,230Z" transform="translate(-474 -229.474)"/><path class="b" d="M490.842,222.2A9.25,9.25,0,0,0,489,222v1.974Z" transform="translate(-474 -222)"/><path class="b" d="M534.908,310.368l6.25-6.184a12.346,12.346,0,0,0-.789-1.184L533,310.368Z" transform="translate(-515.105 -297.671)"/><path class="b" d="M498.408,271.987l-.46-.461a3.976,3.976,0,0,0-.526-.526L489,279.487v.987h.921Z" transform="translate(-474 -267.776)"/><path class="b" d="M593.908,345.868l3.487-3.421c-.132-.526-.329-.987-.461-1.447L592,345.868Z" transform="translate(-570.224 -333.171)"/><path class="b" d="M273.763,256a12.73,12.73,0,1,0,12.763,12.7H273.763Z" transform="translate(-261 -253.763)"/></g></g><path class="c" d="M1029.041,321.981c2.113-1.879,3.194-4.979,3.334-9.206a11.888,11.888,0,0,0-3.334-9.3,13.014,13.014,0,0,0-17.707,0c-2.254,2.207-3.335,5.354-3.335,9.346.047,3.992,1.127,7.045,3.335,9.253a12.052,12.052,0,0,0,8.783,3.241A12.957,12.957,0,0,0,1029.041,321.981Zm-2.771-9.206c0,5.025-2.02,7.515-6.106,7.515-4.039,0-6.059-2.489-6.059-7.515.094-5.025,2.114-7.515,6.059-7.515C1024.156,305.26,1026.176,307.75,1026.27,312.775Zm18.834,11.037a11.724,11.724,0,0,1-.282,1.785,4.137,4.137,0,0,1-.8,1.644,3.033,3.033,0,0,1-2.536.939,2.974,2.974,0,0,1-2.771-1.644h-6.388a7.019,7.019,0,0,0,2.959,4.979,10.054,10.054,0,0,0,5.871,1.738,12.113,12.113,0,0,0,6.106-1.456,6.783,6.783,0,0,0,2.912-3.476,11.658,11.658,0,0,0,.845-4.368v-9.487a10.23,10.23,0,0,0-.845-4.18c-1.456-3.1-4.462-4.7-9.018-4.7-3.241,0-5.589.939-7.092,2.865a11.458,11.458,0,0,0-2.114,7.092,13.078,13.078,0,0,0,.845,4.6c1.738,4.462,5.167,6.106,10.145,4.979A4.645,4.645,0,0,0,1045.1,323.812Zm-.094-8.407c.047,1.785-.235,3.053-.939,3.8a3.317,3.317,0,0,1-2.583,1.221,3.184,3.184,0,0,1-2.583-1.221,5.722,5.722,0,0,1-.892-3.757,6.523,6.523,0,0,1,.892-3.663,3.15,3.15,0,0,1,2.63-1.221,2.713,2.713,0,0,1,2.536,1.221A6.919,6.919,0,0,1,1045.01,315.405Zm19.632,8.83c2.442-1.268,3.71-3.523,3.757-6.857v-6.153a4.381,4.381,0,0,0-2.3-4.274,12.919,12.919,0,0,0-6.246-1.409,9.688,9.688,0,0,0-5.965,1.785,6.346,6.346,0,0,0-2.207,4.368h5.73c.188-.892,1.08-1.362,2.583-1.362,1.785,0,2.677.423,2.63,1.174,0,.47-.376.751-1.127.892-1.08.141-2.255.329-3.57.564-4.415.7-6.669,2.818-6.716,6.247a5.532,5.532,0,0,0,3.241,5.5,10.462,10.462,0,0,0,5.166.752A11,11,0,0,0,1064.642,324.235Zm-1.973-7.984v.892c.047,2.4-1.174,3.57-3.757,3.57-1.221,0-1.879-.564-1.926-1.644,0-.939.657-1.55,2.02-1.926,1.315-.235,2.161-.47,2.536-.564A10.192,10.192,0,0,0,1062.67,316.251Zm27.9-7.75c3.194,0,4.791,1.644,4.791,4.885v9.675a1.888,1.888,0,0,0,2.16,2.067h1.174V313.761c0-5.5-2.677-8.219-8.125-8.172-3.006,0-5.119.8-6.481,2.442-1.174-1.691-3.335-2.489-6.434-2.489-5.5,0-8.219,2.724-8.172,8.219v11.366h3.335V313.386c-.047-3.241,1.55-4.885,4.744-4.885,3.241,0,4.838,1.6,4.838,4.7v11.93h3.429V313.1C1085.777,310.051,1087.327,308.5,1090.568,308.5Zm15.124,5.26c-3.9.7-5.871,2.63-5.965,5.73-.094,3.992,2.254,5.965,7,5.965,3.241,0,5.542-.564,6.9-1.785,1.362-1.174,2.02-2.959,2.02-5.354v-8.125c-.047-3.053-2.583-4.6-7.7-4.6-4.932.047-7.374,1.832-7.374,5.354h3.382c0-1.738,1.315-2.583,3.9-2.63,3.006-.094,4.462.658,4.462,2.254,0,1.362-.845,2.207-2.536,2.489Q1107.524,313.48,1105.692,313.761Zm6.622.939v3.616c0,2.912-1.644,4.368-5.026,4.368-2.63,0-3.945-1.033-3.945-3.053,0-2.067,1.315-3.288,4.039-3.663a27.264,27.264,0,0,0,3.382-.564A3.983,3.983,0,0,0,1112.314,314.7Zm4.932,10.427h3.335V314.043c.047-3.194,1.691-4.838,5.026-4.838h1.5v-3.335h-1.221c-5.777,0-8.642,2.912-8.642,8.689Zm11.178,0h3.335v-6.9a1.351,1.351,0,0,1,1.409-1.55,3.2,3.2,0,0,1,2.724,1.832l3.992,6.622h4.368l-7.374-11.225,6.9-7.327h-4.556l-7.468,8.031V302.489a1.854,1.854,0,0,0-2.114-2.067h-1.221ZM1156.745,314h-10.661c.423-3.616,2.207-5.4,5.354-5.4S1156.369,310.38,1156.745,314Zm3.241,2.724c.376-7.421-2.442-11.131-8.5-11.131-5.777,0-8.689,3.335-8.736,9.957.094,6.622,2.959,9.91,8.548,9.91,4.6,0,7.421-2.067,8.407-6.247h-2.114a2.087,2.087,0,0,0-1.926,1.127c-.7,1.268-2.066,1.926-4.086,2.067-3.381,0-5.213-1.879-5.495-5.683Zm1.221-16.3v21.37c0,2.442,1.691,3.57,5.025,3.335a7.884,7.884,0,0,0,1.362-.141v-2.724h-.846c-1.456,0-2.207-.611-2.207-1.832V308.219h1.691c1.362,0,2.02-.611,2.02-1.832v-.517h-3.71v-3.382a1.817,1.817,0,0,0-2.114-2.067ZM1182.624,314h-10.615c.423-3.616,2.208-5.4,5.354-5.4S1182.248,310.38,1182.624,314Zm3.288,2.724c.376-7.421-2.489-11.131-8.5-11.131-5.777,0-8.689,3.335-8.736,9.957.094,6.622,2.912,9.91,8.5,9.91,4.65,0,7.468-2.067,8.454-6.247h-2.161a2.018,2.018,0,0,0-1.879,1.127c-.751,1.268-2.113,1.926-4.133,2.067-3.335,0-5.167-1.879-5.448-5.683Zm1.174,8.407h3.335V314.043c.047-3.194,1.738-4.838,5.073-4.838h1.456v-3.335h-1.174c-5.777,0-8.689,2.912-8.689,8.689Z" transform="translate(-940.785 -271.139)"/></g></svg>