<svg xmlns="http://www.w3.org/2000/svg" width="32.527" height="38.544" viewBox="0 0 32.527 38.544"><defs><style>.a{fill:#2F5991;}.a,.b{fill-rule:evenodd;}.b{fill:#ff896a;}</style></defs><g transform="translate(0 0)"><path class="a" d="M0,15.83a16.03,16.03,0,0,0,1.982,7.915,17.537,17.537,0,0,0,4.541,5.408c.108-1.432,2.343-3.617,3.532-4.4.541-.358,1.153-.716,1.694-1a5.924,5.924,0,0,0,1.514,1.039,4.317,4.317,0,0,0,2.09.573l-1.406,4.727c-1.946,5.766-2.018,4.548.216,6.733,2.271,2.256,1.946,2.256,4.217,0,2.2-2.185,2.163-1,.252-6.625-.252-.788-.469-1.612-.721-2.328a12.422,12.422,0,0,1-.721-2.507,5.684,5.684,0,0,0,3.6-1.612,10.9,10.9,0,0,1,4.325,3.617,3.683,3.683,0,0,1,.9,1.791c2.487-1.647,5.01-5.587,5.911-8.7A16.056,16.056,0,0,0,28.077,5.015,14.587,14.587,0,0,0,23.643,1.72C12.579-3.795,0,4.442,0,15.83Z" transform="translate(0 0.036)"/><g transform="translate(9.407 7.952)"><path class="b" d="M651,388h1.081v-.036a4.376,4.376,0,0,0-.072-.967Z" transform="translate(-636.944 -381.091)"/><path class="b" d="M492.388,247,489,250.366v1.074l4.037-4.011A3.386,3.386,0,0,0,492.388,247Z" transform="translate(-480.782 -246.105)"/><path class="b" d="M490.874,230,489,231.862v1.074l2.667-2.686A6.764,6.764,0,0,0,490.874,230Z" transform="translate(-480.782 -229.713)"/><path class="b" d="M490.009,222.107A5.1,5.1,0,0,0,489,222v1.074Z" transform="translate(-480.782 -222)"/><path class="b" d="M534.045,307.011l3.424-3.366a6.713,6.713,0,0,0-.433-.645L533,307.011Z" transform="translate(-523.197 -300.099)"/><path class="b" d="M494.154,271.537l-.252-.251a2.165,2.165,0,0,0-.288-.287L489,275.62v.537h.5Z" transform="translate(-480.782 -269.245)"/><path class="b" d="M593.045,343.65l1.91-1.862c-.072-.286-.18-.537-.252-.788l-2.7,2.65Z" transform="translate(-580.07 -336.738)"/><path class="b" d="M267.992,256a6.93,6.93,0,1,0,6.992,6.912h-6.992Z" transform="translate(-261 -254.782)"/></g></g></svg>